<svg id="Capa_1" data-name="Capa 1" xmlns="http://www.w3.org/2000/svg" xmlns:xlink="http://www.w3.org/1999/xlink" viewBox="0 0 360 698.96"><defs><style>.cls-1,.cls-3,.cls-4,.cls-5,.cls-8{fill:none;}.cls-2{fill:#4e3999;}.cls-3,.cls-4,.cls-5{stroke:#412675;}.cls-3,.cls-4,.cls-5,.cls-8{stroke-miterlimit:10;}.cls-3{stroke-width:1.41px;}.cls-4{stroke-width:0.99px;}.cls-5{stroke-width:1.42px;}.cls-6{clip-path:url(#clip-path);}.cls-7{opacity:0.8;}.cls-8{stroke:#42388e;stroke-width:2px;}</style><clipPath id="clip-path"><rect class="cls-1" x="-2" y="-1" width="364" height="218"/></clipPath></defs><title>Mobile design</title><path class="cls-2" d="M360.19,547.42c-30.05-18.13-100.95-36.51-159.78,69.28C150.76,706,110.87,667.82,61.89,666.58,16.49,665.43-.65,698-.65,698V-18.12H360Z"/><circle class="cls-3" cx="315.35" cy="181.12" r="4.7"/><circle class="cls-3" cx="39.35" cy="309.12" r="4.7"/><circle class="cls-3" cx="14.23" cy="155.38" r="3.99"/><rect class="cls-4" x="212.37" y="232.36" width="9.27" height="9.27" transform="matrix(-0.5, 0.87, -0.87, -0.5, 530.75, 167.56)"/><rect class="cls-5" x="235.53" y="13.96" width="9.39" height="9.39" transform="translate(258.89 -221.57) rotate(90)"/><line class="cls-3" x1="315.35" y1="272.92" x2="315.35" y2="286.06"/><g class="cls-6"><g class="cls-7"><circle class="cls-8" cx="285.77" cy="20.07" r="100.48"/><circle class="cls-8" cx="97.95" cy="29.46" r="175.61"/></g></g></svg>