<svg id="Capa_1" data-name="Capa 1" xmlns="http://www.w3.org/2000/svg" xmlns:xlink="http://www.w3.org/1999/xlink" viewBox="0 0 1366 768"><defs><style>.cls-1,.cls-5,.cls-6,.cls-7,.cls-8{fill:none;}.cls-2{fill:#4e3999;}.cls-3{clip-path:url(#clip-path);}.cls-4{opacity:0.8;}.cls-5{stroke:#42388e;}.cls-5,.cls-6,.cls-7,.cls-8{stroke-miterlimit:10;}.cls-6,.cls-7,.cls-8{stroke:#412675;}.cls-6{stroke-width:3px;}.cls-7{stroke-width:2.11px;}.cls-8{stroke-width:3.02px;}</style><clipPath id="clip-path"><rect class="cls-1" x="2" y="-1" width="448" height="769"/></clipPath></defs><title>DUVA onderconstruction_Mesa de trabajo 1 copia 4</title><path class="cls-2" d="M553.45,768.5c-23-64-45-215,89-340.29,113-105.75,156.11-190.71,154.54-295C795.5,36.5,854.5,0,854.5,0H-52V768Z"/><g class="cls-3"><g class="cls-4"><circle class="cls-5" cx="48.5" cy="158.5" r="214"/><circle class="cls-5" cx="68.5" cy="558.5" r="374"/></g></g><circle class="cls-6" cx="391.5" cy="95.5" r="10"/><circle class="cls-6" cx="424" cy="707" r="8.5"/><polygon class="cls-6" points="68.86 623.76 92.23 632.84 72.68 648.54 53.14 664.24 49.32 639.46 45.5 614.68 68.86 623.76"/><rect class="cls-7" x="604.99" y="263.15" width="19.73" height="19.73" transform="matrix(0.87, 0.5, -0.5, 0.87, 218.88, -270.85)"/><rect class="cls-8" x="35.5" y="245.5" width="20" height="20"/><line class="cls-6" x1="587" y1="95.5" x2="615" y2="95.5"/></svg>