<svg id="Capa_1" data-name="Capa 1" xmlns="http://www.w3.org/2000/svg" xmlns:xlink="http://www.w3.org/1999/xlink" viewBox="0 0 712 444"><defs><style>.cls-1,.cls-4{fill:none;}.cls-2{clip-path:url(#clip-path);}.cls-3{opacity:0.8;}.cls-4{stroke:#42388e;stroke-miterlimit:10;}.cls-5{fill:#fff;}</style><clipPath id="clip-path"><rect class="cls-1" x="762" y="-862" width="448" height="769"/></clipPath></defs><title>Logo</title><g class="cls-2"><g class="cls-3"><circle class="cls-4" cx="828.5" cy="-302.5" r="374"/></g></g><path class="cls-5" d="M81.54,330.31H28.06a4.5,4.5,0,0,1-4.5-4.5V160.47a4.49,4.49,0,0,1,4.5-4.5H81.54a87.17,87.17,0,0,1,87.17,87.17h0A87.17,87.17,0,0,1,81.54,330.31Z"/><path class="cls-5" d="M202,156H338.32a4.5,4.5,0,0,1,4.5,4.5v97.19a72.65,72.65,0,0,1-72.65,72.65h0a72.65,72.65,0,0,1-72.65-72.65V160.47A4.5,4.5,0,0,1,202,156Z"/><path class="cls-5" d="M600,165.81,520.12,325.59a4.5,4.5,0,0,0,4,6.51H683.94a4.5,4.5,0,0,0,4-6.51l-79.9-159.78A4.5,4.5,0,0,0,600,165.81Z"/><path class="cls-5" d="M455,322.2,375.16,162.53a4.53,4.53,0,0,1,4-6.56H538.9a4.53,4.53,0,0,1,4.05,6.56L463.1,322.2A4.53,4.53,0,0,1,455,322.2Z"/></svg>