<svg xmlns="http://www.w3.org/2000/svg" xmlns:xlink="http://www.w3.org/1999/xlink" viewBox="0 0 277.2 196.99"><defs><style>.cls-1,.cls-11,.cls-13,.cls-14,.cls-15,.cls-16,.cls-19,.cls-21,.cls-24,.cls-4,.cls-9{fill:none;}.cls-2{fill:#e8ecef;}.cls-10,.cls-12,.cls-17,.cls-18,.cls-22,.cls-23,.cls-3,.cls-6{fill:#fff;}.cls-16,.cls-4{stroke:#fff;}.cls-10,.cls-11,.cls-12,.cls-14,.cls-15,.cls-16,.cls-17,.cls-19,.cls-21,.cls-22,.cls-24,.cls-4,.cls-6,.cls-9{stroke-miterlimit:10;}.cls-15,.cls-24,.cls-4{stroke-width:2px;}.cls-5{clip-path:url(#clip-path);}.cls-10,.cls-11,.cls-12,.cls-13,.cls-14,.cls-17,.cls-18,.cls-19,.cls-21,.cls-22,.cls-23,.cls-6,.cls-9{stroke:#282828;}.cls-6,.cls-9{stroke-width:3.04px;}.cls-7{fill:#fa5f53;}.cls-8{fill:#fed85d;}.cls-10,.cls-11{stroke-width:3.26px;}.cls-11,.cls-18,.cls-21,.cls-23{stroke-linecap:round;}.cls-12,.cls-13,.cls-14{stroke-width:2.49px;}.cls-13,.cls-18,.cls-23{stroke-linejoin:round;}.cls-15{stroke:#fed85d;}.cls-16{stroke-width:3.39px;}.cls-17,.cls-18,.cls-21{stroke-width:3px;}.cls-19{stroke-width:2.8px;}.cls-20{clip-path:url(#clip-path-2);}.cls-22{stroke-width:3.23px;}.cls-23{stroke-width:3.06px;}.cls-24{stroke:#1b1b18;}.cls-25{fill:#282828;}</style><clipPath id="clip-path"><path class="cls-1" d="M174.71,36.47c4.91,8,36.5,43.54,66.28,58.27s27.54,53.15,17.29,70.12c-8.4,13.91-28.5,27.21-51.23,18.89-27.77-10.17-52.51-14.41-81.64-13.77s-59.88,6.72-72.68,6.4S10.46,165.5,12.06,125.16c1.37-34.58,64.36-92.54,90.61-108.87S158.7,10.21,174.71,36.47Z"/></clipPath><clipPath id="clip-path-2"><rect class="cls-1" x="48.2" y="26.99" width="182" height="43"/></clipPath></defs><title>Recurso 9</title><g id="Capa_2" data-name="Capa 2"><g id="Capa_1-2" data-name="Capa 1"><path class="cls-2" d="M178.14,30.69c5.36,8.8,40,47.67,72.56,63.8s30.14,58.19,18.92,76.76c-9.19,15.24-31.19,29.8-56.08,20.69-30.4-11.14-57.49-15.78-89.38-15.08s-65.55,7.36-79.57,7S-1.68,172,.07,127.79C1.57,89.94,70.52,26.49,99.27,8.61S160.61,2,178.14,30.69Z"/><path class="cls-3" d="M174.71,36.47c4.91,8,36.5,43.54,66.28,58.27s27.54,53.15,17.29,70.12c-8.4,13.91-28.5,27.21-51.23,18.89-27.77-10.17-52.51-14.41-81.64-13.77s-59.88,6.72-72.68,6.4S10.46,165.5,12.06,125.16c1.37-34.58,64.36-92.54,90.61-108.87S158.7,10.21,174.71,36.47Z"/><path class="cls-4" d="M202.2,122s5-8,10-4,7-9,7-9"/><path class="cls-1" d="M174.71,36.47c4.91,8,36.5,43.54,66.28,58.27s27.54,53.15,17.29,70.12c-8.4,13.91-28.5,27.21-51.23,18.89-27.77-10.17-52.51-14.41-81.64-13.77s-59.88,6.72-72.68,6.4S10.46,165.5,12.06,125.16c1.37-34.58,64.36-92.54,90.61-108.87S158.7,10.21,174.71,36.47Z"/><g class="cls-5"><path class="cls-6" d="M204.3,195.47h-139v-157a7.12,7.12,0,0,1,7.12-7.12H197.19a7.11,7.11,0,0,1,7.11,7.12v9.51"/><circle class="cls-7" cx="76.91" cy="42.94" r="2.65"/><circle class="cls-8" cx="84.85" cy="42.94" r="2.65"/><circle class="cls-8" cx="92.79" cy="42.94" r="2.65"/><path class="cls-9" d="M204.3,195.47h-139v-157a7.12,7.12,0,0,1,7.12-7.12H197.19a7.11,7.11,0,0,1,7.11,7.12v157Z"/><rect class="cls-10" x="51.45" y="65.17" width="54.3" height="73.85"/><line class="cls-11" x1="63.94" y1="84.72" x2="93.26" y2="84.72"/><line class="cls-11" x1="63.94" y1="92.87" x2="93.26" y2="92.87"/><line class="cls-11" x1="63.94" y1="100.47" x2="93.26" y2="100.47"/><line class="cls-11" x1="63.94" y1="108.07" x2="93.26" y2="108.07"/><line class="cls-11" x1="63.94" y1="115.67" x2="93.26" y2="115.67"/><rect class="cls-12" x="141.86" y="78.35" width="76.34" height="42.75"/><polyline class="cls-13" points="146.19 116.3 165.47 98.42 180.25 110.63"/><polygon class="cls-8" points="215.58 115.43 198.01 91 179.71 115.43 215.58 115.43"/><circle class="cls-12" cx="175.88" cy="94.06" r="3.49"/><polygon class="cls-13" points="213.47 116.74 194.59 91.44 174.91 116.74 213.47 116.74"/><rect class="cls-14" x="146.19" y="82.72" width="67.68" height="34.03"/><rect class="cls-15" x="68.55" y="123.49" width="20.1" height="5" rx="1.18" ry="1.18"/><rect class="cls-8" x="91.2" y="147.78" width="43" height="29.42"/><line class="cls-16" x1="91.2" y1="147.78" x2="134.2" y2="177.2"/><line class="cls-16" x1="134.2" y1="147.78" x2="91.2" y2="177.2"/><polygon class="cls-17" points="169.95 175.62 169.95 137.99 171.57 137.99 226.94 137.99 169.95 175.62"/><line class="cls-18" x1="180.24" y1="138.47" x2="180.24" y2="144.44"/><line class="cls-18" x1="186.69" y1="138.47" x2="186.69" y2="144.44"/><line class="cls-18" x1="192.07" y1="138.47" x2="192.07" y2="144.44"/><line class="cls-19" x1="71.2" y1="54.99" x2="199.2" y2="54.99"/></g><g class="cls-20"><path class="cls-17" d="M204.3,195.47h-139v-157a7.12,7.12,0,0,1,7.12-7.12H197.19a7.11,7.11,0,0,1,7.11,7.12v9.51"/><circle class="cls-7" cx="76.91" cy="42.94" r="2.65"/><circle class="cls-8" cx="84.85" cy="42.94" r="2.65"/><circle class="cls-8" cx="92.79" cy="42.94" r="2.65"/><path class="cls-9" d="M204.3,195.47h-139v-157a7.12,7.12,0,0,1,7.12-7.12H197.19a7.11,7.11,0,0,1,7.11,7.12v157Z"/><rect class="cls-17" x="51.45" y="65.17" width="54.3" height="73.85"/><line class="cls-21" x1="63.94" y1="84.72" x2="93.26" y2="84.72"/><line class="cls-21" x1="63.94" y1="92.87" x2="93.26" y2="92.87"/><line class="cls-21" x1="63.94" y1="100.47" x2="93.26" y2="100.47"/><line class="cls-21" x1="63.94" y1="108.07" x2="93.26" y2="108.07"/><line class="cls-21" x1="63.94" y1="115.67" x2="93.26" y2="115.67"/><rect class="cls-8" x="91.2" y="147.78" width="43" height="29.42"/><line class="cls-16" x1="91.2" y1="147.78" x2="134.2" y2="177.2"/><line class="cls-16" x1="134.2" y1="147.78" x2="91.2" y2="177.2"/><polygon class="cls-22" points="169.95 175.62 169.95 137.99 171.57 137.99 226.94 137.99 169.95 175.62"/><line class="cls-23" x1="180.24" y1="138.47" x2="180.24" y2="144.44"/><line class="cls-23" x1="186.69" y1="138.47" x2="186.69" y2="144.44"/><line class="cls-23" x1="192.07" y1="138.47" x2="192.07" y2="144.44"/><line class="cls-19" x1="71.2" y1="54.99" x2="199.2" y2="54.99"/></g><circle class="cls-8" cx="241.2" cy="45.99" r="5"/><circle class="cls-24" cx="239.2" cy="43.99" r="5"/><path class="cls-25" d="M227.56,157.49l4,15.93a.4.4,0,0,0,.68.18L235.2,166l8.51-2.77a.41.41,0,0,0-.11-.7L228.13,157A.45.45,0,0,0,227.56,157.49Z"/></g></g></svg>